<svg width="31" height="32" viewBox="0 0 31 32" fill="none" xmlns="http://www.w3.org/2000/svg">
<path d="M0.660084 15.3986C0.659359 18.0175 1.34365 20.5746 2.64483 22.8286L0.535645 30.5296L8.41665 28.4631C10.5964 29.6498 13.0387 30.2716 15.5206 30.2717H15.5271C23.7202 30.2717 30.3895 23.6048 30.393 15.4103C30.3946 11.4395 28.8496 7.70555 26.0426 4.89636C23.2361 2.08741 19.5035 0.539654 15.5265 0.537842C7.33245 0.537842 0.663588 7.20441 0.660205 15.3986" fill="url(#paint0_linear_35_1216)"/>
<path d="M0.129272 15.3938C0.128426 18.1069 0.837248 20.7555 2.18482 23.0902L0 31.0672L8.16359 28.9267C10.4129 30.1531 12.9454 30.7997 15.5224 30.8007H15.5291C24.0161 30.8007 30.925 23.8939 30.9286 15.4061C30.9301 11.2926 29.3295 7.42444 26.4222 4.51461C23.5146 1.60515 19.6485 0.00169141 15.5291 0C7.04061 0 0.132655 6.90578 0.129272 15.3938ZM4.99087 22.6881L4.68605 22.2042C3.40469 20.1668 2.72836 17.8124 2.72933 15.3947C2.73211 8.33974 8.47372 2.59994 15.5339 2.59994C18.953 2.60139 22.1662 3.93422 24.5829 6.35245C26.9996 8.77093 28.3294 11.9858 28.3286 15.4051C28.3254 22.4601 22.5837 28.2006 15.5291 28.2006H15.524C13.2269 28.1994 10.9741 27.5825 9.00941 26.4168L8.54186 26.1395L3.69742 27.4097L4.99087 22.688V22.6881Z" fill="url(#paint1_linear_35_1216)"/>
<path d="M11.6801 8.95822C11.3919 8.31754 11.0885 8.30461 10.8144 8.29338C10.5899 8.28371 10.3333 8.28444 10.0769 8.28444C9.8203 8.28444 9.40336 8.38097 9.05095 8.76576C8.69817 9.15092 7.7041 10.0817 7.7041 11.9747C7.7041 13.8679 9.08296 15.6974 9.27518 15.9544C9.46764 16.2109 11.9371 20.22 15.8481 21.7623C19.0985 23.044 19.76 22.7891 20.4654 22.7248C21.171 22.6608 22.7421 21.7943 23.0626 20.8958C23.3833 19.9974 23.3833 19.2274 23.2872 19.0664C23.191 18.9061 22.9344 18.8098 22.5496 18.6175C22.1647 18.425 20.273 17.4942 19.9203 17.3657C19.5675 17.2374 19.311 17.1734 19.0544 17.5587C18.7978 17.9434 18.061 18.8098 17.8364 19.0664C17.612 19.3237 17.3874 19.3557 17.0027 19.1632C16.6177 18.9702 15.3785 18.5643 13.9083 17.2536C12.7644 16.2337 11.9922 14.9742 11.7677 14.5889C11.5432 14.2042 11.7437 13.9957 11.9366 13.804C12.1095 13.6316 12.3215 13.3547 12.5141 13.1301C12.706 12.9054 12.77 12.745 12.8983 12.4884C13.0267 12.2316 12.9625 12.0069 12.8664 11.8144C12.77 11.622 12.0223 9.71899 11.6801 8.95822Z" fill="white"/>
<defs>
<linearGradient id="paint0_linear_35_1216" x1="1493.4" y1="2999.71" x2="1493.4" y2="0.537842" gradientUnits="userSpaceOnUse">
<stop stop-color="#1FAF38"/>
<stop offset="1" stop-color="#60D669"/>
</linearGradient>
<linearGradient id="paint1_linear_35_1216" x1="1546.43" y1="3106.72" x2="1546.43" y2="0" gradientUnits="userSpaceOnUse">
<stop stop-color="#F9F9F9"/>
<stop offset="1" stop-color="white"/>
</linearGradient>
</defs>
</svg>
