<svg width="24" height="20" viewBox="0 0 24 20" fill="none" xmlns="http://www.w3.org/2000/svg">
<path fill-rule="evenodd" clip-rule="evenodd" d="M4.44854 0.842439C3.97991 0.373809 3.22011 0.373809 2.75148 0.842439C2.28285 1.31107 2.28285 2.07087 2.75148 2.53949L19.5515 19.3395C20.0201 19.8081 20.7799 19.8081 21.2485 19.3395C21.7172 18.8709 21.7172 18.1111 21.2485 17.6424L19.4807 15.8746C21.3258 14.4019 22.7268 12.3963 23.4509 10.0909C21.9218 5.22242 17.3734 1.69097 12.0003 1.69097C10.052 1.69097 8.21214 2.15527 6.58536 2.97926L4.44854 0.842439ZM9.56176 5.95566L11.3784 7.77232C11.5768 7.71926 11.7852 7.69097 12.0003 7.69097C13.3258 7.69097 14.4003 8.76548 14.4003 10.091C14.4003 10.306 14.372 10.5145 14.319 10.7129L16.1356 12.5295C16.558 11.8149 16.8003 10.9812 16.8003 10.091C16.8003 7.44 14.6513 5.29097 12.0003 5.29097C11.1101 5.29097 10.2764 5.53333 9.56176 5.95566Z" fill="#AFB0B1"/>
<path d="M14.9449 18.127L11.6996 14.8817C9.28817 14.7326 7.35865 12.8031 7.20958 10.3917L2.80192 5.98402C1.80077 7.17764 1.02765 8.56899 0.549622 10.091C2.07875 14.9595 6.62709 18.491 12.0002 18.491C13.0162 18.491 14.0027 18.3647 14.9449 18.127Z" fill="#AFB0B1"/>
</svg>
